<?xml version="1.0" encoding="us-ascii" standalone="no"?><svg xmlns="http://www.w3.org/2000/svg" xmlns:xlink="http://www.w3.org/1999/xlink" contentStyleType="text/css" height="922px" preserveAspectRatio="none" style="width:379px;height:922px;background:#FFFFFF;" version="1.1" viewBox="0 0 379 922" width="379px" zoomAndPan="magnify"><defs/><g><text fill="#000000" font-family="sans-serif" font-size="14" font-weight="bold" lengthAdjust="spacing" textLength="185" x="95.5" y="34.5332">Multilingual RAG Workflow</text><ellipse cx="185.25" cy="58.6094" fill="#222222" rx="10" ry="10" style="stroke:#222222;stroke-width:1.0;"/><rect fill="#F1F1F1" height="35.0938" rx="12.5" ry="12.5" style="stroke:#181818;stroke-width:0.5;" width="147" x="111.75" y="88.6094"/><text fill="#000000" font-family="sans-serif" font-size="12" lengthAdjust="spacing" textLength="127" x="121.75" y="111.0664">Receive User Question</text><rect fill="#F1F1F1" height="35.0938" rx="12.5" ry="12.5" style="stroke:#181818;stroke-width:0.5;" width="114" x="128.25" y="143.7031"/><text fill="#000000" font-family="sans-serif" font-size="12" lengthAdjust="spacing" textLength="94" x="138.25" y="166.1602">Detect Language</text><rect fill="#F1F1F1" height="35.0938" rx="12.5" ry="12.5" style="stroke:#181818;stroke-width:0.5;" width="183" x="93.75" y="247.7148"/><text fill="#000000" font-family="sans-serif" font-size="12" lengthAdjust="spacing" textLength="163" x="103.75" y="270.1719">Translate Question to English</text><polygon fill="#F1F1F1" points="153.75,198.7969,216.75,198.7969,228.75,210.7969,216.75,222.7969,153.75,222.7969,141.75,210.7969,153.75,198.7969" style="stroke:#181818;stroke-width:0.5;"/><text fill="#000000" font-family="sans-serif" font-size="11" lengthAdjust="spacing" textLength="20" x="189.25" y="234.2158">Yes</text><text fill="#000000" font-family="sans-serif" font-size="11" lengthAdjust="spacing" textLength="63" x="153.75" y="215.2979">Vietnamese?</text><polygon fill="#F1F1F1" points="185.25,302.8086,197.25,314.8086,185.25,326.8086,173.25,314.8086,185.25,302.8086" style="stroke:#181818;stroke-width:0.5;"/><rect fill="#F1F1F1" height="35.0938" rx="12.5" ry="12.5" style="stroke:#181818;stroke-width:0.5;" width="173" x="98.75" y="346.8086"/><text fill="#000000" font-family="sans-serif" font-size="12" lengthAdjust="spacing" textLength="153" x="108.75" y="369.2656">Generate Query Embedding</text><rect fill="#F1F1F1" height="35.0938" rx="12.5" ry="12.5" style="stroke:#181818;stroke-width:0.5;" width="168" x="101.25" y="401.9023"/><text fill="#000000" font-family="sans-serif" font-size="12" lengthAdjust="spacing" textLength="148" x="111.25" y="424.3594">Search Similar Documents</text><rect fill="#F1F1F1" height="35.0938" rx="12.5" ry="12.5" style="stroke:#181818;stroke-width:0.5;" width="145" x="112.75" y="456.9961"/><text fill="#000000" font-family="sans-serif" font-size="12" lengthAdjust="spacing" textLength="125" x="122.75" y="479.4531">Retrieve Top-K Context</text><polygon fill="#F1F1F1" points="124.75,512.0898,245.75,512.0898,257.75,524.0898,245.75,536.0898,124.75,536.0898,112.75,524.0898,124.75,512.0898" style="stroke:#181818;stroke-width:0.5;"/><text fill="#000000" font-family="sans-serif" font-size="11" lengthAdjust="spacing" textLength="121" x="124.75" y="528.5908">Relevant Context Found?</text><text fill="#000000" font-family="sans-serif" font-size="11" lengthAdjust="spacing" textLength="20" x="92.75" y="521.6729">Yes</text><text fill="#000000" font-family="sans-serif" font-size="11" lengthAdjust="spacing" textLength="13" x="257.75" y="521.6729">No</text><rect fill="#F1F1F1" height="35.0938" rx="12.5" ry="12.5" style="stroke:#181818;stroke-width:0.5;" width="160" x="11" y="546.0898"/><text fill="#000000" font-family="sans-serif" font-size="12" lengthAdjust="spacing" textLength="140" x="21" y="568.5469">Build Prompt with Context</text><rect fill="#F1F1F1" height="35.0938" rx="12.5" ry="12.5" style="stroke:#181818;stroke-width:0.5;" width="177" x="191" y="546.0898"/><text fill="#000000" font-family="sans-serif" font-size="12" lengthAdjust="spacing" textLength="157" x="201" y="568.5469">Build Prompt without Context</text><polygon fill="#F1F1F1" points="185.25,587.1836,197.25,599.1836,185.25,611.1836,173.25,599.1836,185.25,587.1836" style="stroke:#181818;stroke-width:0.5;"/><rect fill="#F1F1F1" height="35.0938" rx="12.5" ry="12.5" style="stroke:#181818;stroke-width:0.5;" width="175" x="97.75" y="631.1836"/><text fill="#000000" font-family="sans-serif" font-size="12" lengthAdjust="spacing" textLength="155" x="107.75" y="653.6406">Generate Answer using LLM</text><rect fill="#F1F1F1" height="35.0938" rx="12.5" ry="12.5" style="stroke:#181818;stroke-width:0.5;" width="198" x="86.25" y="735.1953"/><text fill="#000000" font-family="sans-serif" font-size="12" lengthAdjust="spacing" textLength="178" x="96.25" y="757.6523">Translate Answer to Vietnamese</text><polygon fill="#F1F1F1" points="153.75,686.2773,216.75,686.2773,228.75,698.2773,216.75,710.2773,153.75,710.2773,141.75,698.2773,153.75,686.2773" style="stroke:#181818;stroke-width:0.5;"/><text fill="#000000" font-family="sans-serif" font-size="11" lengthAdjust="spacing" textLength="20" x="189.25" y="721.6963">Yes</text><text fill="#000000" font-family="sans-serif" font-size="11" lengthAdjust="spacing" textLength="63" x="153.75" y="702.7783">Vietnamese?</text><polygon fill="#F1F1F1" points="185.25,790.2891,197.25,802.2891,185.25,814.2891,173.25,802.2891,185.25,790.2891" style="stroke:#181818;stroke-width:0.5;"/><rect fill="#F1F1F1" height="35.0938" rx="12.5" ry="12.5" style="stroke:#181818;stroke-width:0.5;" width="144" x="113.25" y="834.2891"/><text fill="#000000" font-family="sans-serif" font-size="12" lengthAdjust="spacing" textLength="124" x="123.25" y="856.7461">Return Answer to User</text><ellipse cx="185.25" cy="900.3828" fill="none" rx="11" ry="11" style="stroke:#222222;stroke-width:1.0;"/><ellipse cx="185.25" cy="900.3828" fill="#222222" rx="6" ry="6" style="stroke:#222222;stroke-width:1.0;"/><line style="stroke:#181818;stroke-width:1.0;" x1="185.25" x2="185.25" y1="68.6094" y2="88.6094"/><polygon fill="#181818" points="181.25,78.6094,185.25,88.6094,189.25,78.6094,185.25,82.6094" style="stroke:#181818;stroke-width:1.0;"/><line style="stroke:#181818;stroke-width:1.0;" x1="185.25" x2="185.25" y1="123.7031" y2="143.7031"/><polygon fill="#181818" points="181.25,133.7031,185.25,143.7031,189.25,133.7031,185.25,137.7031" style="stroke:#181818;stroke-width:1.0;"/><line style="stroke:#181818;stroke-width:1.0;" x1="185.25" x2="185.25" y1="222.7969" y2="247.7148"/><polygon fill="#181818" points="181.25,237.7148,185.25,247.7148,189.25,237.7148,185.25,241.7148" style="stroke:#181818;stroke-width:1.0;"/><line style="stroke:#181818;stroke-width:1.0;" x1="228.75" x2="286.75" y1="210.7969" y2="210.7969"/><polygon fill="#181818" points="282.75,255.2617,286.75,265.2617,290.75,255.2617,286.75,259.2617" style="stroke:#181818;stroke-width:1.0;"/><line style="stroke:#181818;stroke-width:1.0;" x1="286.75" x2="286.75" y1="210.7969" y2="314.8086"/><line style="stroke:#181818;stroke-width:1.0;" x1="286.75" x2="197.25" y1="314.8086" y2="314.8086"/><polygon fill="#181818" points="207.25,310.8086,197.25,314.8086,207.25,318.8086,203.25,314.8086" style="stroke:#181818;stroke-width:1.0;"/><line style="stroke:#181818;stroke-width:1.0;" x1="185.25" x2="185.25" y1="282.8086" y2="302.8086"/><polygon fill="#181818" points="181.25,292.8086,185.25,302.8086,189.25,292.8086,185.25,296.8086" style="stroke:#181818;stroke-width:1.0;"/><line style="stroke:#181818;stroke-width:1.0;" x1="185.25" x2="185.25" y1="178.7969" y2="198.7969"/><polygon fill="#181818" points="181.25,188.7969,185.25,198.7969,189.25,188.7969,185.25,192.7969" style="stroke:#181818;stroke-width:1.0;"/><line style="stroke:#181818;stroke-width:1.0;" x1="185.25" x2="185.25" y1="326.8086" y2="346.8086"/><polygon fill="#181818" points="181.25,336.8086,185.25,346.8086,189.25,336.8086,185.25,340.8086" style="stroke:#181818;stroke-width:1.0;"/><line style="stroke:#181818;stroke-width:1.0;" x1="185.25" x2="185.25" y1="381.9023" y2="401.9023"/><polygon fill="#181818" points="181.25,391.9023,185.25,401.9023,189.25,391.9023,185.25,395.9023" style="stroke:#181818;stroke-width:1.0;"/><line style="stroke:#181818;stroke-width:1.0;" x1="185.25" x2="185.25" y1="436.9961" y2="456.9961"/><polygon fill="#181818" points="181.25,446.9961,185.25,456.9961,189.25,446.9961,185.25,450.9961" style="stroke:#181818;stroke-width:1.0;"/><line style="stroke:#181818;stroke-width:1.0;" x1="112.75" x2="91" y1="524.0898" y2="524.0898"/><line style="stroke:#181818;stroke-width:1.0;" x1="91" x2="91" y1="524.0898" y2="546.0898"/><polygon fill="#181818" points="87,536.0898,91,546.0898,95,536.0898,91,540.0898" style="stroke:#181818;stroke-width:1.0;"/><line style="stroke:#181818;stroke-width:1.0;" x1="257.75" x2="279.5" y1="524.0898" y2="524.0898"/><line style="stroke:#181818;stroke-width:1.0;" x1="279.5" x2="279.5" y1="524.0898" y2="546.0898"/><polygon fill="#181818" points="275.5,536.0898,279.5,546.0898,283.5,536.0898,279.5,540.0898" style="stroke:#181818;stroke-width:1.0;"/><line style="stroke:#181818;stroke-width:1.0;" x1="91" x2="91" y1="581.1836" y2="599.1836"/><line style="stroke:#181818;stroke-width:1.0;" x1="91" x2="173.25" y1="599.1836" y2="599.1836"/><polygon fill="#181818" points="163.25,595.1836,173.25,599.1836,163.25,603.1836,167.25,599.1836" style="stroke:#181818;stroke-width:1.0;"/><line style="stroke:#181818;stroke-width:1.0;" x1="279.5" x2="279.5" y1="581.1836" y2="599.1836"/><line style="stroke:#181818;stroke-width:1.0;" x1="279.5" x2="197.25" y1="599.1836" y2="599.1836"/><polygon fill="#181818" points="207.25,595.1836,197.25,599.1836,207.25,603.1836,203.25,599.1836" style="stroke:#181818;stroke-width:1.0;"/><line style="stroke:#181818;stroke-width:1.0;" x1="185.25" x2="185.25" y1="492.0898" y2="512.0898"/><polygon fill="#181818" points="181.25,502.0898,185.25,512.0898,189.25,502.0898,185.25,506.0898" style="stroke:#181818;stroke-width:1.0;"/><line style="stroke:#181818;stroke-width:1.0;" x1="185.25" x2="185.25" y1="611.1836" y2="631.1836"/><polygon fill="#181818" points="181.25,621.1836,185.25,631.1836,189.25,621.1836,185.25,625.1836" style="stroke:#181818;stroke-width:1.0;"/><line style="stroke:#181818;stroke-width:1.0;" x1="185.25" x2="185.25" y1="710.2773" y2="735.1953"/><polygon fill="#181818" points="181.25,725.1953,185.25,735.1953,189.25,725.1953,185.25,729.1953" style="stroke:#181818;stroke-width:1.0;"/><line style="stroke:#181818;stroke-width:1.0;" x1="228.75" x2="294.25" y1="698.2773" y2="698.2773"/><polygon fill="#181818" points="290.25,742.7422,294.25,752.7422,298.25,742.7422,294.25,746.7422" style="stroke:#181818;stroke-width:1.0;"/><line style="stroke:#181818;stroke-width:1.0;" x1="294.25" x2="294.25" y1="698.2773" y2="802.2891"/><line style="stroke:#181818;stroke-width:1.0;" x1="294.25" x2="197.25" y1="802.2891" y2="802.2891"/><polygon fill="#181818" points="207.25,798.2891,197.25,802.2891,207.25,806.2891,203.25,802.2891" style="stroke:#181818;stroke-width:1.0;"/><line style="stroke:#181818;stroke-width:1.0;" x1="185.25" x2="185.25" y1="770.2891" y2="790.2891"/><polygon fill="#181818" points="181.25,780.2891,185.25,790.2891,189.25,780.2891,185.25,784.2891" style="stroke:#181818;stroke-width:1.0;"/><line style="stroke:#181818;stroke-width:1.0;" x1="185.25" x2="185.25" y1="666.2773" y2="686.2773"/><polygon fill="#181818" points="181.25,676.2773,185.25,686.2773,189.25,676.2773,185.25,680.2773" style="stroke:#181818;stroke-width:1.0;"/><line style="stroke:#181818;stroke-width:1.0;" x1="185.25" x2="185.25" y1="814.2891" y2="834.2891"/><polygon fill="#181818" points="181.25,824.2891,185.25,834.2891,189.25,824.2891,185.25,828.2891" style="stroke:#181818;stroke-width:1.0;"/><line style="stroke:#181818;stroke-width:1.0;" x1="185.25" x2="185.25" y1="869.3828" y2="889.3828"/><polygon fill="#181818" points="181.25,879.3828,185.25,889.3828,189.25,879.3828,185.25,883.3828" style="stroke:#181818;stroke-width:1.0;"/><!--SRC=[bL4nKiD03Epl5IgTWWya1HD8I873G19WA0zx4siuwp9tkXX-pvanu66WGAMqkrgjbDM1riafEvP3ieusynKz-l2oTxup9geDQinqWmfy0jr71BfBYCfUPdcmWA9IActFFY2tU4_50qF5jeWudv0s42gU42V6KAxfBbY9pYg-b4WzBUNWE3PP0LBpFckl80W3BBpHidr6NMUR_TujRAWQsdBBpWPQ-2gr48sp3xCQ6DdjpX_FhkdIY-9L1siRE9oiw6URhdoI-ZUR5ubTJRV1jqUbZhKPAS55K77Z_yJwf6Fupulc4hkSP8hv72hBzJzp6-WvjM_6Q4qE80KPeVgtpVfl-gDv1m00]--></g></svg>