<?xml version="1.0" encoding="us-ascii" standalone="no"?><svg xmlns="http://www.w3.org/2000/svg" xmlns:xlink="http://www.w3.org/1999/xlink" contentStyleType="text/css" height="586px" preserveAspectRatio="none" style="width:348px;height:586px;background:#FFFFFF;" version="1.1" viewBox="0 0 348 586" width="348px" zoomAndPan="magnify"><defs/><g><!--cluster AI Chatbot System--><g id="cluster_AI Chatbot System"><rect fill="none" height="573" rx="2.5" ry="2.5" style="stroke:#181818;stroke-width:1.0;" width="231" x="111" y="7"/><text fill="#000000" font-family="sans-serif" font-size="14" font-weight="bold" lengthAdjust="spacing" textLength="126" x="163.5" y="23.5332">AI Chatbot System</text></g><g id="elem_UC1"><ellipse cx="226.2688" cy="59.1538" fill="#F1F1F1" rx="68.7688" ry="16.1538" style="stroke:#181818;stroke-width:0.5;"/><text fill="#000000" font-family="sans-serif" font-size="14" lengthAdjust="spacing" textLength="84" x="181.2688" y="63.6704">Ask Question</text></g><g id="elem_UC2"><ellipse cx="226.5887" cy="126.0177" fill="#F1F1F1" rx="68.0887" ry="16.0177" style="stroke:#181818;stroke-width:0.5;"/><text fill="#000000" font-family="sans-serif" font-size="14" lengthAdjust="spacing" textLength="82" x="182.5887" y="130.5343">View Product</text></g><g id="elem_UC3"><ellipse cx="226.376" cy="194.0752" fill="#F1F1F1" rx="73.376" ry="17.0752" style="stroke:#181818;stroke-width:0.5;"/><text fill="#000000" font-family="sans-serif" font-size="14" lengthAdjust="spacing" textLength="97" x="174.876" y="198.5918">View Promotion</text></g><g id="elem_UC4"><ellipse cx="226.58" cy="262.1227" fill="#F1F1F1" rx="66.08" ry="15.6227" style="stroke:#181818;stroke-width:0.5;"/><text fill="#000000" font-family="sans-serif" font-size="14" lengthAdjust="spacing" textLength="76" x="185.58" y="266.6393">Place Order</text></g><g id="elem_UC5"><ellipse cx="226.4763" cy="330.0953" fill="#F1F1F1" rx="75.9763" ry="17.5953" style="stroke:#181818;stroke-width:0.5;"/><text fill="#000000" font-family="sans-serif" font-size="14" lengthAdjust="spacing" textLength="104" x="171.5467" y="334.5957">Manage Product</text></g><g id="elem_UC6"><ellipse cx="226.613" cy="404.8226" fill="#F1F1F1" rx="99.613" ry="22.3226" style="stroke:#181818;stroke-width:0.5;"/><text fill="#000000" font-family="sans-serif" font-size="14" lengthAdjust="spacing" textLength="160" x="146.613" y="408.5511">Manage Knowledge Base</text></g><g id="elem_UC7"><ellipse cx="226.2688" cy="479.1538" fill="#F1F1F1" rx="68.7688" ry="16.1538" style="stroke:#181818;stroke-width:0.5;"/><text fill="#000000" font-family="sans-serif" font-size="14" lengthAdjust="spacing" textLength="84" x="181.2688" y="483.6704">Manage FAQ</text></g><g id="elem_UC8"><ellipse cx="226.7427" cy="547.1485" fill="#F1F1F1" rx="73.7427" ry="17.1485" style="stroke:#181818;stroke-width:0.5;"/><text fill="#000000" font-family="sans-serif" font-size="14" lengthAdjust="spacing" textLength="98" x="174.7427" y="551.6651">View Chat Logs</text></g><!--entity Customer--><g id="elem_Customer"><ellipse cx="36.5" cy="129.5" fill="#F1F1F1" rx="8" ry="8" style="stroke:#181818;stroke-width:0.5;"/><path d="M36.5,137.5 L36.5,164.5 M23.5,145.5 L49.5,145.5 M36.5,164.5 L23.5,179.5 M36.5,164.5 L49.5,179.5 " fill="none" style="stroke:#181818;stroke-width:0.5;"/><text fill="#000000" font-family="sans-serif" font-size="14" lengthAdjust="spacing" textLength="61" x="6" y="195.5332">Customer</text></g><!--entity Admin--><g id="elem_Admin"><ellipse cx="36.5" cy="411.5" fill="#F1F1F1" rx="8" ry="8" style="stroke:#181818;stroke-width:0.5;"/><path d="M36.5,419.5 L36.5,446.5 M23.5,427.5 L49.5,427.5 M36.5,446.5 L23.5,461.5 M36.5,446.5 L49.5,461.5 " fill="none" style="stroke:#181818;stroke-width:0.5;"/><text fill="#000000" font-family="sans-serif" font-size="14" lengthAdjust="spacing" textLength="39" x="17" y="477.5332">Admin</text></g><!--link Customer to UC1--><g id="link_Customer_UC1"><path d="M67.05,122.19 C77.38,111.09 89.73,99.84 103,92 C122.82,80.29 141.0227,73.985 162.5427,69.035 " fill="none" id="Customer-to-UC1" style="stroke:#181818;stroke-width:1.0;"/><polygon fill="#181818" points="168.39,67.69,158.7224,65.8093,163.5172,68.8108,160.5157,73.6057,168.39,67.69" style="stroke:#181818;stroke-width:1.0;"/></g><!--link Customer to UC2--><g id="link_Customer_UC2"><path d="M67.29,154.61 C95.35,149.54 132.1257,142.8875 166.0857,136.7475 " fill="none" id="Customer-to-UC2" style="stroke:#181818;stroke-width:1.0;"/><polygon fill="#181818" points="171.99,135.68,162.4219,133.3451,167.0698,136.5696,163.8453,141.2174,171.99,135.68" style="stroke:#181818;stroke-width:1.0;"/></g><!--link Customer to UC3--><g id="link_Customer_UC3"><path d="M67.29,165.39 C94.31,170.27 128.996,176.5409 162.296,182.5709 " fill="none" id="Customer-to-UC3" style="stroke:#181818;stroke-width:1.0;"/><polygon fill="#181818" points="168.2,183.64,160.0568,178.1004,163.28,182.7491,158.6313,185.9723,168.2,183.64" style="stroke:#181818;stroke-width:1.0;"/></g><!--link Customer to UC4--><g id="link_Customer_UC4"><path d="M67.09,197.75 C77.42,208.85 89.76,220.11 103,228 C123.67,240.32 143.0932,246.9628 165.3132,252.0828 " fill="none" id="Customer-to-UC4" style="stroke:#181818;stroke-width:1.0;"/><polygon fill="#181818" points="171.16,253.43,163.288,247.5113,166.2877,252.3073,161.4917,255.307,171.16,253.43" style="stroke:#181818;stroke-width:1.0;"/></g><!--link Admin to UC5--><g id="link_Admin_UC5"><path d="M56.08,412.62 C67.74,396.41 84.11,377.16 103,365 C121.32,353.2 137.8562,346.7831 158.4362,341.5331 " fill="none" id="Admin-to-UC5" style="stroke:#181818;stroke-width:1.0;"/><polygon fill="#181818" points="164.25,340.05,154.5405,338.3988,159.4052,341.2859,156.518,346.1505,164.25,340.05" style="stroke:#181818;stroke-width:1.0;"/></g><!--link Admin to UC6--><g id="link_Admin_UC6"><path d="M56.21,438.32 C78.32,433.97 110.563,427.619 145.053,420.829 " fill="none" id="Admin-to-UC6" style="stroke:#181818;stroke-width:1.0;"/><polygon fill="#181818" points="150.94,419.67,141.3369,417.4838,146.0342,420.6358,142.8821,425.3331,150.94,419.67" style="stroke:#181818;stroke-width:1.0;"/></g><!--link Admin to UC7--><g id="link_Admin_UC7"><path d="M56.21,445.68 C83.24,451 128.3429,459.8816 167.3229,467.5516 " fill="none" id="Admin-to-UC7" style="stroke:#181818;stroke-width:1.0;"/><polygon fill="#181818" points="173.21,468.71,165.1516,463.0477,168.3041,467.7447,163.6071,470.8972,173.21,468.71" style="stroke:#181818;stroke-width:1.0;"/></g><!--link Admin to UC8--><g id="link_Admin_UC8"><path d="M56.06,467.98 C67.93,482.84 84.54,500.72 103,512 C122.25,523.76 139.7901,530.2509 160.9301,535.5509 " fill="none" id="Admin-to-UC8" style="stroke:#181818;stroke-width:1.0;"/><polygon fill="#181818" points="166.75,537.01,158.9929,530.9414,161.9001,535.7941,157.0474,538.7013,166.75,537.01" style="stroke:#181818;stroke-width:1.0;"/></g><!--SRC=[RP3DQiCm48JlUeh1znoQD3-dWcC8XBGqeJHtHTeuehONf3MXbBnxxA20xVgccVbOxKv1Pu4mlCil0kiy6N5SAQMDi4TM1-6IV9IfBLsJjP2kyeAGf5ja5oqd5dpz1g4omPzIG1t8wD02uGU7ca8xDO4E-CvUkldHqHLxpxOs4lFfM5voPyAiI-mBRGYVtfAFyMjlWmzTwPm6Vyn7Y5t5ru9iyretTWGN8-0cFSHq-M_LjWsySnuYiL8tfPurOZ9vUnGmCAP3OpOqcfCUvKSvxwb5JorxQgNk]--></g></svg>